M48
; DRILL file {KiCad 8.0.5} date 2024-10-12T18:26:34-0400
; FORMAT={-:-/ absolute / inch / decimal}
; #@! TF.CreationDate,2024-10-12T18:26:34-04:00
; #@! TF.GenerationSoftware,Kicad,Pcbnew,8.0.5
; #@! TF.FileFunction,Plated,1,2,PTH
FMAT,2
INCH
; #@! TA.AperFunction,Plated,PTH,ComponentDrill
T1C0.0402
; #@! TA.AperFunction,Plated,PTH,ComponentDrill
T2C0.0591
%
G90
G05
T1
X8.1008Y-4.5528
X8.1008Y-5.2528
X8.1098Y-4.8028
X8.1098Y-4.9028
X8.1098Y-5.0028
X8.2008Y-4.5528
X8.2008Y-5.2528
X8.3008Y-4.5528
X8.3008Y-5.2528
X8.4008Y-4.5528
X8.4008Y-5.2528
X8.5008Y-4.5528
X8.5008Y-5.2528
X8.6008Y-4.5528
X8.6008Y-5.2528
X8.7008Y-4.5528
X8.7008Y-5.2528
X8.8008Y-4.5528
X8.8008Y-5.2528
X8.9008Y-4.5528
X8.9008Y-5.2528
X9.0008Y-4.5528
X9.0008Y-5.2528
X9.1008Y-4.5528
X9.1008Y-5.2528
X9.2008Y-4.5528
X9.2008Y-5.2528
X9.3008Y-4.5528
X9.3008Y-5.2528
X9.4008Y-4.5528
X9.4008Y-5.2528
X9.5008Y-4.5528
X9.5008Y-5.2528
X9.6008Y-4.5528
X9.6008Y-5.2528
X9.7008Y-4.5528
X9.7008Y-5.2528
X9.8008Y-4.5528
X9.8008Y-5.2528
X9.9008Y-4.5528
X9.9008Y-5.2528
X10.0008Y-4.5528
X10.0008Y-5.2528
T2
X1.5732Y-4.6906
X1.5807Y-3.4094
X1.8232Y-4.5906
X1.8307Y-3.3094
X2.8799Y-3.2126
X2.8799Y-4.4528
X3.1299Y-3.1126
X3.1299Y-4.3528
X4.1972Y-4.4362
X4.1988Y-3.0945
X4.4472Y-4.3362
X4.4488Y-2.9945
X5.4374Y-4.7906
X5.4571Y-3.452
X5.6874Y-4.6906
X5.7071Y-3.352
X6.4354Y-1.4606
X6.6854Y-1.3606
X6.6988Y-5.3976
X6.9488Y-5.2976
X7.0925Y-3.4291
X7.2819Y-1.4606
X7.3425Y-3.3291
X7.5319Y-1.3606
X8.0768Y-2.8386
X8.1161Y-1.4606
X8.3268Y-2.7386
X8.3661Y-1.3606
X8.961Y-1.4622
X9.211Y-1.3622
X9.2185Y-2.7992
X9.4685Y-2.6992
X9.7894Y-1.4591
X10.0394Y-1.3591
M30
