M48
; DRILL file {KiCad 8.0.5} date 2024-10-12T18:26:34-0400
; FORMAT={-:-/ absolute / inch / decimal}
; #@! TF.CreationDate,2024-10-12T18:26:34-04:00
; #@! TF.GenerationSoftware,Kicad,Pcbnew,8.0.5
; #@! TF.FileFunction,NonPlated,1,2,NPTH
FMAT,2
INCH
; #@! TA.AperFunction,NonPlated,NPTH,ComponentDrill
T1C0.0591
; #@! TA.AperFunction,NonPlated,NPTH,ComponentDrill
T2C0.0669
; #@! TA.AperFunction,NonPlated,NPTH,ComponentDrill
T3C0.0709
; #@! TA.AperFunction,NonPlated,NPTH,ComponentDrill
T4C0.1575
%
G90
G05
T1
X9.8764Y-4.8073
X9.8764Y-4.9982
T2
X1.5232Y-4.7906
X1.5307Y-3.5094
X1.9232Y-4.7906
X1.9307Y-3.5094
X2.8299Y-3.3126
X2.8299Y-4.5528
X3.2299Y-3.3126
X3.2299Y-4.5528
X4.1472Y-4.5362
X4.1488Y-3.1945
X4.5472Y-4.5362
X4.5488Y-3.1945
X5.3874Y-4.8906
X5.4071Y-3.552
X5.7874Y-4.8906
X5.8071Y-3.552
X6.3854Y-1.5606
X6.6488Y-5.4976
X6.7854Y-1.5606
X7.0425Y-3.5291
X7.0488Y-5.4976
X7.2319Y-1.5606
X7.4425Y-3.5291
X7.6319Y-1.5606
X8.0268Y-2.9386
X8.0661Y-1.5606
X8.4268Y-2.9386
X8.4661Y-1.5606
X8.911Y-1.5622
X9.1685Y-2.8992
X9.311Y-1.5622
X9.5685Y-2.8992
X9.7394Y-1.5591
X10.1394Y-1.5591
T3
X9.9957Y-4.7955
X9.9957Y-5.01
T4
X1.7232Y-4.7906
X1.7307Y-3.5094
X3.0299Y-3.3126
X3.0299Y-4.5528
X4.3472Y-4.5362
X4.3488Y-3.1945
X5.5874Y-4.8906
X5.6071Y-3.552
X6.5854Y-1.5606
X6.8488Y-5.4976
X7.2425Y-3.5291
X7.4319Y-1.5606
X8.2268Y-2.9386
X8.2661Y-1.5606
X9.111Y-1.5622
X9.3685Y-2.8992
X9.9394Y-1.5591
M30
