%TF.GenerationSoftware,KiCad,Pcbnew,8.0.5*%
%TF.CreationDate,2024-10-12T18:26:30-04:00*%
%TF.ProjectId,MicrocontrollerMount,4d696372-6f63-46f6-9e74-726f6c6c6572,rev?*%
%TF.SameCoordinates,Original*%
%TF.FileFunction,Soldermask,Top*%
%TF.FilePolarity,Negative*%
%FSLAX46Y46*%
G04 Gerber Fmt 4.6, Leading zero omitted, Abs format (unit mm)*
G04 Created by KiCad (PCBNEW 8.0.5) date 2024-10-12 18:26:30*
%MOMM*%
%LPD*%
G01*
G04 APERTURE LIST*
%ADD10C,2.200000*%
%ADD11C,1.700000*%
%ADD12C,4.000000*%
%ADD13O,1.800000X1.800000*%
%ADD14O,1.500000X1.500000*%
%ADD15O,1.700000X1.700000*%
%ADD16R,1.700000X3.500000*%
%ADD17R,1.700000X1.700000*%
%ADD18R,3.500000X1.700000*%
G04 APERTURE END LIST*
D10*
%TO.C,X1*%
X138610000Y-87680000D03*
X144960000Y-85140000D03*
D11*
X147500000Y-90220000D03*
D12*
X142420000Y-90220000D03*
D11*
X137340000Y-90220000D03*
%TD*%
D10*
%TO.C,GUIDE1*%
X163460000Y-37100000D03*
X169810000Y-34560000D03*
D11*
X172350000Y-39640000D03*
D12*
X167270000Y-39640000D03*
D11*
X162190000Y-39640000D03*
%TD*%
D10*
%TO.C,SWL3*%
X206150000Y-37100000D03*
X212500000Y-34560000D03*
D11*
X215040000Y-39640000D03*
D12*
X209960000Y-39640000D03*
D11*
X204880000Y-39640000D03*
%TD*%
D10*
%TO.C,LT1*%
X39960000Y-119140000D03*
X46310000Y-116600000D03*
D11*
X48850000Y-121680000D03*
D12*
X43770000Y-121680000D03*
D11*
X38690000Y-121680000D03*
%TD*%
D10*
%TO.C,B1*%
X106610000Y-112680000D03*
X112960000Y-110140000D03*
D11*
X115500000Y-115220000D03*
D12*
X110420000Y-115220000D03*
D11*
X105340000Y-115220000D03*
%TD*%
D10*
%TO.C,SWR3*%
X184960000Y-37100000D03*
X191310000Y-34560000D03*
D11*
X193850000Y-39640000D03*
D12*
X188770000Y-39640000D03*
D11*
X183690000Y-39640000D03*
%TD*%
D10*
%TO.C,UP1*%
X170150000Y-137100000D03*
X176500000Y-134560000D03*
D11*
X179040000Y-139640000D03*
D12*
X173960000Y-139640000D03*
D11*
X168880000Y-139640000D03*
%TD*%
D10*
%TO.C,RIGHT1*%
X234150000Y-71100000D03*
X240500000Y-68560000D03*
D11*
X243040000Y-73640000D03*
D12*
X237960000Y-73640000D03*
D11*
X232880000Y-73640000D03*
%TD*%
D10*
%TO.C,LB1*%
X40150000Y-86600000D03*
X46500000Y-84060000D03*
D11*
X49040000Y-89140000D03*
D12*
X43960000Y-89140000D03*
D11*
X38880000Y-89140000D03*
%TD*%
%TO.C,LEFT1*%
X178880000Y-89640000D03*
D12*
X183960000Y-89640000D03*
D11*
X189040000Y-89640000D03*
D10*
X186500000Y-84560000D03*
X180150000Y-87100000D03*
%TD*%
%TO.C,A1*%
X138110000Y-121680000D03*
X144460000Y-119140000D03*
D11*
X147000000Y-124220000D03*
D12*
X141920000Y-124220000D03*
D11*
X136840000Y-124220000D03*
%TD*%
D13*
%TO.C,U1*%
X253890000Y-121805000D03*
D14*
X250860000Y-122105000D03*
X250860000Y-126955000D03*
D13*
X253890000Y-127255000D03*
D15*
X254020000Y-115640000D03*
D16*
X254020000Y-114740000D03*
D15*
X251480000Y-115640000D03*
D16*
X251480000Y-114740000D03*
D17*
X248940000Y-115640000D03*
D16*
X248940000Y-114740000D03*
D15*
X246400000Y-115640000D03*
D16*
X246400000Y-114740000D03*
D15*
X243860000Y-115640000D03*
D16*
X243860000Y-114740000D03*
D15*
X241320000Y-115640000D03*
D16*
X241320000Y-114740000D03*
D15*
X238780000Y-115640000D03*
D16*
X238780000Y-114740000D03*
D17*
X236240000Y-115640000D03*
D16*
X236240000Y-114740000D03*
D15*
X233700000Y-115640000D03*
D16*
X233700000Y-114740000D03*
D15*
X231160000Y-115640000D03*
D16*
X231160000Y-114740000D03*
D15*
X228620000Y-115640000D03*
D16*
X228620000Y-114740000D03*
D15*
X226080000Y-115640000D03*
D16*
X226080000Y-114740000D03*
D17*
X223540000Y-115640000D03*
D16*
X223540000Y-114740000D03*
D15*
X221000000Y-115640000D03*
D16*
X221000000Y-114740000D03*
D15*
X218460000Y-115640000D03*
D16*
X218460000Y-114740000D03*
D15*
X215920000Y-115640000D03*
D16*
X215920000Y-114740000D03*
D15*
X213380000Y-115640000D03*
D16*
X213380000Y-114740000D03*
D17*
X210840000Y-115640000D03*
D16*
X210840000Y-114740000D03*
D15*
X208300000Y-115640000D03*
D16*
X208300000Y-114740000D03*
D15*
X205760000Y-115640000D03*
D16*
X205760000Y-114740000D03*
D15*
X205760000Y-133420000D03*
D16*
X205760000Y-134320000D03*
D15*
X208300000Y-133420000D03*
D16*
X208300000Y-134320000D03*
D17*
X210840000Y-133420000D03*
D16*
X210840000Y-134320000D03*
D15*
X213380000Y-133420000D03*
D16*
X213380000Y-134320000D03*
D15*
X215920000Y-133420000D03*
D16*
X215920000Y-134320000D03*
D15*
X218460000Y-133420000D03*
D16*
X218460000Y-134320000D03*
D15*
X221000000Y-133420000D03*
D16*
X221000000Y-134320000D03*
D17*
X223540000Y-133420000D03*
D16*
X223540000Y-134320000D03*
D15*
X226080000Y-133420000D03*
D16*
X226080000Y-134320000D03*
D15*
X228620000Y-133420000D03*
D16*
X228620000Y-134320000D03*
D15*
X231160000Y-133420000D03*
D16*
X231160000Y-134320000D03*
D15*
X233700000Y-133420000D03*
D16*
X233700000Y-134320000D03*
D17*
X236240000Y-133420000D03*
D16*
X236240000Y-134320000D03*
D15*
X238780000Y-133420000D03*
D16*
X238780000Y-134320000D03*
D15*
X241320000Y-133420000D03*
D16*
X241320000Y-134320000D03*
D15*
X243860000Y-133420000D03*
D16*
X243860000Y-134320000D03*
D15*
X246400000Y-133420000D03*
D16*
X246400000Y-134320000D03*
D17*
X248940000Y-133420000D03*
D16*
X248940000Y-134320000D03*
D15*
X251480000Y-133420000D03*
D16*
X251480000Y-134320000D03*
D15*
X254020000Y-133420000D03*
D16*
X254020000Y-134320000D03*
D15*
X205990000Y-121990000D03*
D18*
X205090000Y-121990000D03*
D17*
X205990000Y-124530000D03*
D18*
X205090000Y-124530000D03*
D15*
X205990000Y-127070000D03*
D18*
X205090000Y-127070000D03*
%TD*%
D11*
%TO.C,DOWN1*%
X203880000Y-74640000D03*
D12*
X208960000Y-74640000D03*
D11*
X214040000Y-74640000D03*
D10*
X211500000Y-69560000D03*
X205150000Y-72100000D03*
%TD*%
%TO.C,BACK1*%
X248650000Y-37060000D03*
X255000000Y-34520000D03*
D11*
X257540000Y-39600000D03*
D12*
X252460000Y-39600000D03*
D11*
X247380000Y-39600000D03*
%TD*%
D10*
%TO.C,RB1*%
X73150000Y-81600000D03*
X79500000Y-79060000D03*
D11*
X82040000Y-84140000D03*
D12*
X76960000Y-84140000D03*
D11*
X71880000Y-84140000D03*
%TD*%
D10*
%TO.C,Y1*%
X106650000Y-78600000D03*
X113000000Y-76060000D03*
D11*
X115540000Y-81140000D03*
D12*
X110460000Y-81140000D03*
D11*
X105380000Y-81140000D03*
%TD*%
D10*
%TO.C,RT1*%
X73150000Y-113100000D03*
X79500000Y-110560000D03*
D11*
X82040000Y-115640000D03*
D12*
X76960000Y-115640000D03*
D11*
X71880000Y-115640000D03*
%TD*%
D10*
%TO.C,START1*%
X227610000Y-37140000D03*
X233960000Y-34600000D03*
D11*
X236500000Y-39680000D03*
D12*
X231420000Y-39680000D03*
D11*
X226340000Y-39680000D03*
%TD*%
M02*
