%TF.GenerationSoftware,KiCad,Pcbnew,8.0.5*%
%TF.CreationDate,2024-10-12T18:26:30-04:00*%
%TF.ProjectId,MicrocontrollerMount,4d696372-6f63-46f6-9e74-726f6c6c6572,rev?*%
%TF.SameCoordinates,Original*%
%TF.FileFunction,Copper,L2,Bot*%
%TF.FilePolarity,Positive*%
%FSLAX46Y46*%
G04 Gerber Fmt 4.6, Leading zero omitted, Abs format (unit mm)*
G04 Created by KiCad (PCBNEW 8.0.5) date 2024-10-12 18:26:30*
%MOMM*%
%LPD*%
G01*
G04 APERTURE LIST*
%TA.AperFunction,ComponentPad*%
%ADD10C,2.200000*%
%TD*%
%TA.AperFunction,ComponentPad*%
%ADD11O,1.700000X1.700000*%
%TD*%
%TA.AperFunction,ComponentPad*%
%ADD12R,1.700000X1.700000*%
%TD*%
%TA.AperFunction,Conductor*%
%ADD13C,0.300000*%
%TD*%
G04 APERTURE END LIST*
D10*
%TO.P,X1,2,B*%
%TO.N,GND*%
X138610000Y-87680000D03*
%TO.P,X1,1,A*%
%TO.N,X*%
X144960000Y-85140000D03*
%TD*%
%TO.P,GUIDE1,2,B*%
%TO.N,GND*%
X163460000Y-37100000D03*
%TO.P,GUIDE1,1,A*%
%TO.N,Guide*%
X169810000Y-34560000D03*
%TD*%
%TO.P,SWL3,2,B*%
%TO.N,GND*%
X206150000Y-37100000D03*
%TO.P,SWL3,1,A*%
%TO.N,L3*%
X212500000Y-34560000D03*
%TD*%
%TO.P,LT1,2,B*%
%TO.N,GND*%
X39960000Y-119140000D03*
%TO.P,LT1,1,A*%
%TO.N,LT*%
X46310000Y-116600000D03*
%TD*%
%TO.P,B1,2,B*%
%TO.N,GND*%
X106610000Y-112680000D03*
%TO.P,B1,1,A*%
%TO.N,B*%
X112960000Y-110140000D03*
%TD*%
%TO.P,SWR3,2,B*%
%TO.N,GND*%
X184960000Y-37100000D03*
%TO.P,SWR3,1,A*%
%TO.N,R3*%
X191310000Y-34560000D03*
%TD*%
%TO.P,UP1,2,B*%
%TO.N,GND*%
X170150000Y-137100000D03*
%TO.P,UP1,1,A*%
%TO.N,UP*%
X176500000Y-134560000D03*
%TD*%
%TO.P,RIGHT1,2,B*%
%TO.N,GND*%
X234150000Y-71100000D03*
%TO.P,RIGHT1,1,A*%
%TO.N,RIGHT*%
X240500000Y-68560000D03*
%TD*%
%TO.P,LB1,2,B*%
%TO.N,GND*%
X40150000Y-86600000D03*
%TO.P,LB1,1,A*%
%TO.N,LB*%
X46500000Y-84060000D03*
%TD*%
%TO.P,LEFT1,1,A*%
%TO.N,LEFT*%
X186500000Y-84560000D03*
%TO.P,LEFT1,2,B*%
%TO.N,GND*%
X180150000Y-87100000D03*
%TD*%
%TO.P,A1,2,B*%
%TO.N,GND*%
X138110000Y-121680000D03*
%TO.P,A1,1,A*%
%TO.N,A*%
X144460000Y-119140000D03*
%TD*%
D11*
%TO.P,U1,1,GPIO0*%
%TO.N,unconnected-(U1-GPIO0-Pad1)_1*%
X254020000Y-115640000D03*
%TO.P,U1,2,GPIO1*%
%TO.N,unconnected-(U1-GPIO1-Pad2)*%
X251480000Y-115640000D03*
D12*
%TO.P,U1,3,GND*%
%TO.N,GND*%
X248940000Y-115640000D03*
D11*
%TO.P,U1,4,GPIO2*%
%TO.N,UP*%
X246400000Y-115640000D03*
%TO.P,U1,5,GPIO3*%
%TO.N,DOWN*%
X243860000Y-115640000D03*
%TO.P,U1,6,GPIO4*%
%TO.N,RIGHT*%
X241320000Y-115640000D03*
%TO.P,U1,7,GPIO5*%
%TO.N,LEFT*%
X238780000Y-115640000D03*
D12*
%TO.P,U1,8,GND*%
%TO.N,GND*%
X236240000Y-115640000D03*
D11*
%TO.P,U1,9,GPIO6*%
%TO.N,A*%
X233700000Y-115640000D03*
%TO.P,U1,10,GPIO7*%
%TO.N,B*%
X231160000Y-115640000D03*
%TO.P,U1,11,GPIO8*%
%TO.N,RT*%
X228620000Y-115640000D03*
%TO.P,U1,12,GPIO9*%
%TO.N,LT*%
X226080000Y-115640000D03*
D12*
%TO.P,U1,13,GND*%
%TO.N,GND*%
X223540000Y-115640000D03*
D11*
%TO.P,U1,14,GPIO10*%
%TO.N,X*%
X221000000Y-115640000D03*
%TO.P,U1,15,GPIO11*%
%TO.N,Y*%
X218460000Y-115640000D03*
%TO.P,U1,16,GPIO12*%
%TO.N,RB*%
X215920000Y-115640000D03*
%TO.P,U1,17,GPIO13*%
%TO.N,LB*%
X213380000Y-115640000D03*
D12*
%TO.P,U1,18,GND*%
%TO.N,GND*%
X210840000Y-115640000D03*
D11*
%TO.P,U1,19,GPIO14*%
%TO.N,unconnected-(U1-GPIO14-Pad19)_1*%
X208300000Y-115640000D03*
%TO.P,U1,20,GPIO15*%
%TO.N,unconnected-(U1-GPIO15-Pad20)*%
X205760000Y-115640000D03*
%TO.P,U1,21,GPIO16*%
%TO.N,Back*%
X205760000Y-133420000D03*
%TO.P,U1,22,GPIO17*%
%TO.N,Start*%
X208300000Y-133420000D03*
D12*
%TO.P,U1,23,GND*%
%TO.N,GND*%
X210840000Y-133420000D03*
D11*
%TO.P,U1,24,GPIO18*%
%TO.N,L3*%
X213380000Y-133420000D03*
%TO.P,U1,25,GPIO19*%
%TO.N,R3*%
X215920000Y-133420000D03*
%TO.P,U1,26,GPIO20*%
%TO.N,Guide*%
X218460000Y-133420000D03*
%TO.P,U1,27,GPIO21*%
%TO.N,unconnected-(U1-GPIO21-Pad27)_1*%
X221000000Y-133420000D03*
D12*
%TO.P,U1,28,GND*%
%TO.N,GND*%
X223540000Y-133420000D03*
D11*
%TO.P,U1,29,GPIO22*%
%TO.N,unconnected-(U1-GPIO22-Pad29)_1*%
X226080000Y-133420000D03*
%TO.P,U1,30,RUN*%
%TO.N,unconnected-(U1-RUN-Pad30)_1*%
X228620000Y-133420000D03*
%TO.P,U1,31,GPIO26_ADC0*%
%TO.N,unconnected-(U1-GPIO26_ADC0-Pad31)_1*%
X231160000Y-133420000D03*
%TO.P,U1,32,GPIO27_ADC1*%
%TO.N,unconnected-(U1-GPIO27_ADC1-Pad32)_1*%
X233700000Y-133420000D03*
D12*
%TO.P,U1,33,AGND*%
%TO.N,unconnected-(U1-AGND-Pad33)*%
X236240000Y-133420000D03*
D11*
%TO.P,U1,34,GPIO28_ADC2*%
%TO.N,unconnected-(U1-GPIO28_ADC2-Pad34)*%
X238780000Y-133420000D03*
%TO.P,U1,35,ADC_VREF*%
%TO.N,unconnected-(U1-ADC_VREF-Pad35)_1*%
X241320000Y-133420000D03*
%TO.P,U1,36,3V3*%
%TO.N,unconnected-(U1-3V3-Pad36)_1*%
X243860000Y-133420000D03*
%TO.P,U1,37,3V3_EN*%
%TO.N,unconnected-(U1-3V3_EN-Pad37)_1*%
X246400000Y-133420000D03*
D12*
%TO.P,U1,38,GND*%
%TO.N,unconnected-(U1-GND-Pad38)*%
X248940000Y-133420000D03*
D11*
%TO.P,U1,39,VSYS*%
%TO.N,unconnected-(U1-VSYS-Pad39)*%
X251480000Y-133420000D03*
%TO.P,U1,40,VBUS*%
%TO.N,unconnected-(U1-VBUS-Pad40)*%
X254020000Y-133420000D03*
%TO.P,U1,41,SWCLK*%
%TO.N,unconnected-(U1-SWCLK-Pad41)_1*%
X205990000Y-121990000D03*
D12*
%TO.P,U1,42,GND*%
%TO.N,GND*%
X205990000Y-124530000D03*
D11*
%TO.P,U1,43,SWDIO*%
%TO.N,unconnected-(U1-SWDIO-Pad43)*%
X205990000Y-127070000D03*
%TD*%
D10*
%TO.P,DOWN1,1,A*%
%TO.N,DOWN*%
X211500000Y-69560000D03*
%TO.P,DOWN1,2,B*%
%TO.N,GND*%
X205150000Y-72100000D03*
%TD*%
%TO.P,BACK1,2,B*%
%TO.N,GND*%
X248650000Y-37060000D03*
%TO.P,BACK1,1,A*%
%TO.N,Back*%
X255000000Y-34520000D03*
%TD*%
%TO.P,RB1,2,B*%
%TO.N,GND*%
X73150000Y-81600000D03*
%TO.P,RB1,1,A*%
%TO.N,RB*%
X79500000Y-79060000D03*
%TD*%
%TO.P,Y1,2,B*%
%TO.N,GND*%
X106650000Y-78600000D03*
%TO.P,Y1,1,A*%
%TO.N,Y*%
X113000000Y-76060000D03*
%TD*%
%TO.P,RT1,2,B*%
%TO.N,GND*%
X73150000Y-113100000D03*
%TO.P,RT1,1,A*%
%TO.N,RT*%
X79500000Y-110560000D03*
%TD*%
%TO.P,START1,2,B*%
%TO.N,GND*%
X227610000Y-37140000D03*
%TO.P,START1,1,A*%
%TO.N,Start*%
X233960000Y-34600000D03*
%TD*%
D13*
%TO.N,Start*%
X255960000Y-38640000D02*
X251920000Y-34600000D01*
X255960000Y-41640000D02*
X255960000Y-38640000D01*
X258960000Y-44640000D02*
X255960000Y-41640000D01*
X251920000Y-34600000D02*
X233960000Y-34600000D01*
X258960000Y-132640000D02*
X258960000Y-44640000D01*
X253960000Y-137640000D02*
X258960000Y-132640000D01*
X212520000Y-137640000D02*
X253960000Y-137640000D01*
X208300000Y-133420000D02*
X212520000Y-137640000D01*
%TO.N,GND*%
X236240000Y-115360000D02*
X236240000Y-115640000D01*
X237960000Y-113640000D02*
X236240000Y-115360000D01*
X248940000Y-115640000D02*
X246940000Y-113640000D01*
X246940000Y-113640000D02*
X237960000Y-113640000D01*
X224960000Y-113640000D02*
X234240000Y-113640000D01*
X223540000Y-115060000D02*
X224960000Y-113640000D01*
X234240000Y-113640000D02*
X236240000Y-115640000D01*
X223540000Y-115640000D02*
X223540000Y-115060000D01*
X210840000Y-132218300D02*
X210840000Y-133420000D01*
X210960000Y-125640000D02*
X210960000Y-132098300D01*
X209850000Y-124530000D02*
X210960000Y-125640000D01*
X210960000Y-132098300D02*
X210840000Y-132218300D01*
X205990000Y-124530000D02*
X209850000Y-124530000D01*
%TO.N,R3*%
X211960000Y-118640000D02*
X215920000Y-122600000D01*
X204960000Y-118640000D02*
X211960000Y-118640000D01*
X160940000Y-74620000D02*
X204960000Y-118640000D01*
X215920000Y-122600000D02*
X215920000Y-133420000D01*
X160940000Y-36660000D02*
X160940000Y-74620000D01*
X189860000Y-33110000D02*
X164490000Y-33110000D01*
X164490000Y-33110000D02*
X160940000Y-36660000D01*
X191310000Y-34560000D02*
X189860000Y-33110000D01*
%TO.N,Guide*%
X195960000Y-107640000D02*
X205960000Y-117640000D01*
X218460000Y-123140000D02*
X218460000Y-133420000D01*
X195960000Y-67640000D02*
X195960000Y-107640000D01*
X205960000Y-117640000D02*
X212960000Y-117640000D01*
X169810000Y-41490000D02*
X195960000Y-67640000D01*
X212960000Y-117640000D02*
X218460000Y-123140000D01*
X169810000Y-34560000D02*
X169810000Y-41490000D01*
%TO.N,Back*%
X259960000Y-39480000D02*
X255000000Y-34520000D01*
X259960000Y-133640000D02*
X259960000Y-39480000D01*
X253960000Y-139640000D02*
X259960000Y-133640000D01*
X211960000Y-139640000D02*
X253960000Y-139640000D01*
X211960000Y-139620000D02*
X211960000Y-139640000D01*
X205760000Y-133420000D02*
X211960000Y-139620000D01*
%TO.N,L3*%
X212500000Y-34560000D02*
X208960000Y-31020000D01*
X208960000Y-31020000D02*
X161580000Y-31020000D01*
X161580000Y-31020000D02*
X157960000Y-34640000D01*
X157960000Y-34640000D02*
X157960000Y-84640000D01*
X210960000Y-119640000D02*
X213380000Y-122060000D01*
X157960000Y-84640000D02*
X192960000Y-119640000D01*
X192960000Y-119640000D02*
X210960000Y-119640000D01*
X213380000Y-122060000D02*
X213380000Y-133420000D01*
%TD*%
M02*
